<?xml version="1.0" standalone="no"?>
<!DOCTYPE svg PUBLIC "-//W3C//DTD SVG 20010904//EN"
 "http://www.w3.org/TR/2001/REC-SVG-20010904/DTD/svg10.dtd">
<svg version="1.0" xmlns="http://www.w3.org/2000/svg"
 width="2425.000000pt" height="2425.000000pt" viewBox="0 0 2425.000000 2425.000000"
 preserveAspectRatio="xMidYMid meet">
<metadata>
Created by potrace 1.11, written by Peter Selinger 2001-2013
</metadata>
<g transform="translate(0.000000,2425.000000) scale(0.100000,-0.100000)"
fill="#000000" stroke="none">
<path d="M10700 23436 l-1405 -813 -5 -585 -5 -586 -508 293 -508 293 -272
-156 c-150 -86 -787 -454 -1415 -817 l-1142 -659 -2 -583 -3 -582 -504 291
-504 291 -41 -21 c-22 -11 -660 -378 -1416 -815 l-1375 -795 0 -1636 0 -1637
497 -287 c274 -158 498 -290 498 -293 0 -3 -222 -133 -492 -290 l-493 -284 0
-3853 0 -3853 1160 -670 c638 -369 1275 -736 1415 -816 1208 -690 1201 -686
3045 -1750 567 -327 1034 -598 1038 -603 5 -4 236 125 515 286 l507 293 3
-583 2 -583 1415 -817 1415 -817 1108 639 c609 352 1242 717 1407 812 519 298
1267 726 1335 763 72 39 279 159 1799 1037 l1031 595 0 583 c0 320 2 582 4
582 2 0 229 -131 506 -291 276 -159 508 -288 514 -285 6 3 641 369 1411 814
l1400 809 5 1634 c3 899 3 2633 0 3853 l-5 2220 -488 282 c-269 155 -493 286
-497 290 -5 5 215 138 488 295 l497 287 0 1637 0 1637 -1410 814 c-775 448
-1413 814 -1417 814 -4 0 -233 -130 -509 -290 -276 -159 -503 -290 -505 -290
-2 0 -4 262 -4 583 l0 582 -1247 720 c-686 396 -1323 763 -1415 817 l-167 96
-468 -270 c-257 -149 -487 -281 -511 -295 l-42 -25 2 585 3 585 -1412 816
c-777 449 -1416 816 -1420 815 -5 0 -640 -366 -1413 -813z m2830 -15 c1296
-749 1392 -806 1372 -819 -12 -7 -643 -373 -1403 -812 l-1382 -798 -161 94
c-89 51 -714 412 -1391 803 -676 390 -1236 714 -1243 718 -16 10 2774 1625
2799 1621 9 -2 643 -365 1409 -807z m-3852 -2212 c766 -442 1392 -806 1392
-809 0 -3 -630 -369 -1400 -813 l-1400 -808 -1400 808 c-770 444 -1400 811
-1400 814 0 4 278 167 618 363 339 196 966 558 1392 805 426 247 782 448 791
447 9 -2 642 -365 1407 -807z m6642 606 c184 -106 808 -466 1385 -800 578
-333 1050 -610 1050 -615 0 -7 -2644 -1542 -2768 -1606 -27 -15 -46 -4 -1427
793 -770 444 -1400 810 -1400 813 0 13 2796 1619 2810 1614 8 -3 166 -92 350
-199z m-10494 -2815 c764 -441 1392 -805 1396 -809 4 -3 -623 -370 -1392 -815
-980 -565 -1405 -806 -1418 -801 -9 3 -642 367 -1405 807 -1083 626 -1385 804
-1375 813 7 7 616 360 1353 785 737 425 1360 785 1385 801 25 15 50 26 56 24
6 -2 636 -364 1400 -805z m7689 0 c765 -441 1393 -805 1397 -809 4 -4 -623
-370 -1393 -815 -1377 -795 -1401 -809 -1429 -795 -111 55 -2778 1605 -2772
1611 16 16 2795 1617 2801 1614 3 -2 632 -365 1396 -806z m7702 -5 c771 -445
1401 -810 1400 -811 -1 -1 -573 -331 -1272 -734 -698 -403 -1328 -766 -1399
-808 -106 -61 -133 -73 -152 -66 -12 5 -646 369 -1407 809 -1137 657 -1381
802 -1368 811 9 6 369 215 801 464 432 250 1055 610 1385 800 330 191 602 347
605 345 3 -1 636 -366 1407 -810z m1413 -2444 l0 -1619 -582 -337 c-321 -185
-792 -458 -1048 -607 -579 -336 -1500 -867 -1680 -968 -74 -42 -432 -247 -795
-455 -363 -208 -885 -508 -1160 -665 -275 -158 -700 -403 -944 -544 -244 -141
-445 -256 -447 -256 -2 0 -4 728 -4 1618 l0 1617 641 370 c353 204 788 455
968 559 429 248 1544 889 2146 1234 658 377 1906 1095 2450 1410 248 144 451
261 453 261 1 1 2 -728 2 -1618z m-12952 230 c1094 -632 1390 -807 1380 -816
-7 -7 -546 -319 -1198 -695 -652 -376 -1276 -737 -1388 -801 l-203 -118 -862
498 c-474 273 -1106 638 -1405 811 l-543 313 48 28 c1702 986 2751 1588 2763
1586 9 -1 643 -364 1408 -806z m7160 308 c477 -275 1106 -639 1399 -807 292
-169 529 -310 525 -313 -4 -4 -635 -369 -1403 -813 l-1397 -806 -1343 776
c-1602 924 -1453 837 -1449 849 3 12 2769 1613 2788 1614 7 1 403 -224 880
-500z m-3332 -2510 c764 -441 1394 -807 1401 -813 9 -8 -191 -128 -810 -485
-452 -261 -1078 -623 -1392 -804 -313 -181 -575 -331 -581 -334 -6 -2 -503
280 -1105 628 -602 348 -1233 712 -1402 810 -209 120 -304 180 -295 186 33 21
2784 1611 2789 1612 4 1 631 -360 1395 -800z m1425 -3058 l-1 -2212 33 19 c17
11 165 96 327 189 511 293 1358 780 1830 1053 771 444 1370 789 1980 1138 322
184 689 394 815 467 127 73 415 238 640 368 226 129 781 449 1234 711 453 262
828 476 833 476 4 0 7 -1724 6 -3831 l-3 -3830 -1385 -800 c-762 -440 -1393
-805 -1403 -810 -16 -9 -17 57 -17 1383 0 766 0 1765 0 2221 l0 827 -37 -24
c-36 -22 -1111 -641 -1218 -700 -157 -88 -923 -531 -937 -543 -9 -8 -110 -69
-225 -135 -114 -67 -305 -177 -423 -246 -118 -68 -586 -337 -1040 -597 -454
-260 -910 -522 -1015 -582 -408 -235 -1006 -580 -1879 -1084 l-911 -525 -7
2860 c-4 1574 -6 3299 -5 3835 l2 973 1400 809 c769 444 1401 807 1402 805 2
-2 4 -999 4 -2215z m3859 -6048 l-1 -1618 -590 -340 c-324 -187 -786 -454
-1027 -593 -443 -257 -1230 -710 -1912 -1100 -599 -342 -2875 -1652 -3048
-1753 l-82 -49 2 1621 3 1621 635 367 c349 202 939 543 1310 758 848 490 1148
662 1885 1083 663 379 1315 754 2205 1269 333 192 608 350 613 351 4 0 7 -728
7 -1617z"/>
</g>
</svg>
