<svg id="Layer_1" data-name="Layer 1" xmlns="http://www.w3.org/2000/svg" viewBox="0 0 2106.26 2424.7"><defs><style>.cls-1{fill:#fff;}.cls-1,.cls-2,.cls-3,.cls-4,.cls-5,.cls-6{stroke:#000;stroke-miterlimit:10;}.cls-2{fill:#69a1f2;}.cls-3{fill:#001ea3;}.cls-4,.cls-7{fill:#ff2400;}.cls-5,.cls-8{fill:#fdde0d;}.cls-6{fill:#121758;}</style></defs><title>vmcs-logo-vector</title><g id="Cube"><g id="Top"><g id="Top_Left" data-name="Top Left"><polygon class="cls-1" points="771.18 1049.46 1053.63 1212.54 1335.93 1049.55 1053.48 886.48 771.18 1049.46"/><polygon class="cls-1" points="1335.64 1049.96 1053.81 1212.67 1053.66 1212.58 1053.66 1538.4 1335.66 1375.59 1335.66 1049.96 1335.64 1049.96"/><polygon class="cls-1" points="771.83 1049.87 771.66 1049.96 771.66 1375.59 1053.66 1538.4 1053.66 1212.58 771.83 1049.87"/><polygon class="cls-1" points="386.37 1270.78 668.82 1433.85 951.11 1270.87 668.66 1107.8 386.37 1270.78"/><polygon class="cls-1" points="950.64 1271.27 668.81 1433.99 668.66 1433.9 668.66 1759.72 950.66 1596.91 950.66 1271.28 950.64 1271.27"/><polygon class="cls-1" points="386.83 1271.18 386.66 1271.28 386.66 1596.91 668.66 1759.72 668.66 1433.9 386.83 1271.18"/><polygon class="cls-2" points="1.73 1492.13 284.18 1655.2 566.47 1492.22 284.02 1329.15 1.73 1492.13"/><polygon class="cls-3" points="566.64 1492.62 284.81 1655.34 284.66 1655.25 284.66 1981.07 566.66 1818.26 566.66 1492.63 566.64 1492.62"/><polygon class="cls-4" points="1.83 1492.53 1.66 1492.63 1.66 1818.26 283.66 1981.07 283.66 1655.25 1.83 1492.53"/></g><g id="Top_Left-2" data-name="Top Left"><polygon class="cls-1" points="1155.69 1270.84 1438.14 1433.91 1720.44 1270.93 1437.99 1107.86 1155.69 1270.84"/><polygon class="cls-1" points="1720.64 1271.34 1438.81 1434.05 1438.66 1433.96 1438.66 1759.78 1720.66 1596.97 1720.66 1271.34 1720.64 1271.34"/><polygon class="cls-1" points="1155.83 1271.24 1155.66 1271.34 1155.66 1596.97 1437.66 1759.78 1437.66 1433.96 1155.83 1271.24"/><polygon class="cls-1" points="770.88 1492.16 1053.33 1655.23 1335.63 1492.25 1053.18 1329.18 770.88 1492.16"/><polygon class="cls-1" points="1335.64 1492.65 1053.81 1655.37 1053.66 1655.28 1053.66 1981.1 1335.66 1818.29 1335.66 1492.66 1335.64 1492.65"/><polygon class="cls-1" points="770.83 1492.56 770.66 1492.66 770.66 1818.29 1052.66 1981.1 1052.66 1655.28 770.83 1492.56"/><polygon class="cls-2" points="386.24 1713.51 668.69 1876.58 950.99 1713.6 668.54 1550.53 386.24 1713.51"/><polygon class="cls-3" points="950.64 1714 668.81 1876.71 668.66 1876.63 668.66 2202.45 950.66 2039.63 950.66 1714.01 950.64 1714"/><polygon class="cls-4" points="386.83 1713.91 386.66 1714.01 386.66 2039.63 668.66 2202.45 668.66 1876.63 386.83 1713.91"/></g><g id="Top_Left-3" data-name="Top Left"><polygon class="cls-2" points="1540.51 1492.23 1822.96 1655.3 2105.26 1492.32 1822.81 1329.25 1540.51 1492.23"/><polygon class="cls-5" points="2104.64 1492.72 1822.81 1655.44 1822.66 1655.35 1822.66 1981.17 2104.66 1818.36 2104.66 1492.73 2104.64 1492.72"/><polygon class="cls-6" points="1540.83 1492.63 1540.66 1492.73 1540.66 1818.36 1822.66 1981.17 1822.66 1655.35 1540.83 1492.63"/><polygon class="cls-2" points="1155.7 1713.55 1438.15 1876.62 1720.45 1713.63 1438 1550.56 1155.7 1713.55"/><polygon class="cls-5" points="1720.64 1714.04 1438.81 1876.75 1438.66 1876.66 1438.66 2202.48 1720.66 2039.67 1720.66 1714.05 1720.64 1714.04"/><polygon class="cls-6" points="1155.83 1713.95 1155.66 1714.05 1155.66 2039.67 1437.66 2202.48 1437.66 1876.66 1155.83 1713.95"/><polygon class="cls-2" points="771.06 1934.89 1053.51 2097.97 1335.81 1934.98 1053.36 1771.91 771.06 1934.89"/><polygon class="cls-5" points="1335.64 1935.39 1053.81 2098.1 1053.66 2098.01 1053.66 2423.83 1335.66 2261.02 1335.66 1935.39 1335.64 1935.39"/><polygon class="cls-4" points="770.83 1935.3 770.66 1935.39 770.66 2261.02 1052.66 2423.83 1052.66 2098.01 770.83 1935.3"/></g></g><g id="Top-2" data-name="Top"><g id="Top_Left-4" data-name="Top Left"><polygon class="cls-1" points="770.9 606.58 1053.35 769.65 1335.64 606.66 1053.19 443.59 770.9 606.58"/><polygon class="cls-1" points="1335.64 607.07 1053.81 769.78 1053.66 769.69 1053.66 1095.51 1335.66 932.7 1335.66 607.08 1335.64 607.07"/><polygon class="cls-1" points="770.83 606.98 770.66 607.08 770.66 932.7 1052.66 1095.51 1052.66 769.69 770.83 606.98"/><polygon class="cls-1" points="386.08 827.89 668.53 990.96 950.83 827.98 668.38 664.91 386.08 827.89"/><polygon class="cls-1" points="950.64 828.38 668.81 991.1 668.66 991.01 668.66 1316.83 950.66 1154.02 950.66 828.39 950.64 828.38"/><polygon class="cls-1" points="385.83 828.29 385.66 828.39 385.66 1154.02 667.66 1316.83 667.66 991.01 385.83 828.29"/><polygon class="cls-2" points="1.44 1049.24 283.89 1212.31 566.19 1049.33 283.74 886.26 1.44 1049.24"/><polygon class="cls-3" points="565.64 1049.73 283.81 1212.45 283.66 1212.36 283.66 1538.18 565.66 1375.37 565.66 1049.74 565.64 1049.73"/><polygon class="cls-4" points="1.83 1049.64 1.66 1049.74 1.66 1375.37 283.66 1538.18 283.66 1212.36 1.83 1049.64"/></g><g id="Top_Left-5" data-name="Top Left"><polygon class="cls-1" points="1155.41 827.95 1437.86 991.03 1720.15 828.04 1437.7 664.97 1155.41 827.95"/><polygon class="cls-1" points="1719.64 828.45 1437.81 991.16 1437.66 991.07 1437.66 1316.89 1719.66 1154.08 1719.66 828.46 1719.64 828.45"/><polygon class="cls-1" points="1155.83 828.36 1155.66 828.45 1155.66 1154.08 1437.66 1316.89 1437.66 991.07 1155.83 828.36"/><polygon class="cls-1" points="770.6 1049.27 1053.05 1212.34 1335.34 1049.36 1052.89 886.29 770.6 1049.27"/><polygon class="cls-1" points="1334.64 1049.76 1052.81 1212.48 1052.66 1212.39 1052.66 1538.21 1334.66 1375.4 1334.66 1049.77 1334.64 1049.76"/><polygon class="cls-1" points="770.83 1049.67 770.66 1049.77 770.66 1375.4 1052.66 1538.21 1052.66 1212.39 770.83 1049.67"/><polygon class="cls-2" points="385.96 1270.62 668.41 1433.69 950.7 1270.71 668.25 1107.64 385.96 1270.62"/><polygon class="cls-3" points="950.64 1271.11 668.81 1433.83 668.66 1433.74 668.66 1759.56 950.66 1596.74 950.66 1271.12 950.64 1271.11"/><polygon class="cls-2" points="385.83 1271.02 385.66 1271.12 385.66 1596.74 667.66 1759.56 667.66 1433.74 385.83 1271.02"/></g><g id="Top_Left-6" data-name="Top Left"><polygon class="cls-2" points="1540.23 1049.34 1822.68 1212.41 2104.97 1049.43 1822.52 886.36 1540.23 1049.34"/><polygon class="cls-5" points="2104.64 1049.83 1822.81 1212.55 1822.66 1212.46 1822.66 1538.28 2104.66 1375.47 2104.66 1049.84 2104.64 1049.83"/><polygon class="cls-6" points="1540.83 1049.74 1540.66 1049.84 1540.66 1375.47 1822.66 1538.28 1822.66 1212.46 1540.83 1049.74"/><polygon class="cls-2" points="1155.41 1270.66 1437.87 1433.73 1720.16 1270.75 1437.71 1107.67 1155.41 1270.66"/><polygon class="cls-5" points="1719.64 1271.15 1437.81 1433.86 1437.66 1433.77 1437.66 1759.6 1719.66 1596.78 1719.66 1271.16 1719.64 1271.15"/><polygon class="cls-6" points="1155.83 1271.06 1155.66 1271.16 1155.66 1596.78 1437.66 1759.6 1437.66 1433.77 1155.83 1271.06"/><polygon class="cls-2" points="770.77 1492.01 1053.23 1655.08 1335.52 1492.1 1053.07 1329.02 770.77 1492.01"/><polygon class="cls-5" points="1335.64 1492.5 1053.81 1655.21 1053.66 1655.12 1053.66 1980.94 1335.66 1818.13 1335.66 1492.51 1335.64 1492.5"/><polygon class="cls-2" points="770.83 1492.41 770.66 1492.51 770.66 1818.13 1052.66 1980.94 1052.66 1655.12 770.83 1492.41"/></g></g><g id="Top-3" data-name="Top"><g id="Top_Left-7" data-name="Top Left"><polygon class="cls-1" points="770.45 163.56 1052.9 326.63 1335.2 163.65 1052.75 0.58 770.45 163.56"/><polygon class="cls-3" points="1334.64 164.05 1052.81 326.77 1052.66 326.68 1052.66 652.5 1334.66 489.69 1334.66 164.06 1334.64 164.05"/><polygon class="cls-6" points="770.83 163.96 770.66 164.06 770.66 489.69 1052.66 652.5 1052.66 326.68 770.83 163.96"/><polygon class="cls-1" points="385.64 384.88 668.09 547.95 950.38 384.97 667.93 221.89 385.64 384.88"/><polygon class="cls-3" points="950.64 385.37 668.81 548.08 668.66 547.99 668.66 873.82 950.66 711 950.66 385.38 950.64 385.37"/><polygon class="cls-6" points="385.83 385.28 385.66 385.38 385.66 711 667.66 873.82 667.66 547.99 385.83 385.28"/><polygon class="cls-1" points="1 606.23 283.45 769.3 565.74 606.32 283.29 443.24 1 606.23"/><polygon class="cls-3" points="565.64 606.72 283.81 769.43 283.66 769.34 283.66 1095.16 565.66 932.35 565.66 606.73 565.64 606.72"/><polygon class="cls-4" points="0.83 606.63 0.66 606.73 0.66 932.35 282.66 1095.16 282.66 769.34 0.83 606.63"/></g><g id="Top_Left-8" data-name="Top Left"><polygon class="cls-1" points="1154.96 384.94 1437.41 548.01 1719.71 385.03 1437.26 221.96 1154.96 384.94"/><polygon class="cls-3" points="1719.64 385.43 1437.81 548.15 1437.66 548.05 1437.66 873.88 1719.66 711.07 1719.66 385.44 1719.64 385.43"/><polygon class="cls-6" points="1154.83 385.34 1154.66 385.44 1154.66 711.07 1436.66 873.88 1436.66 548.05 1154.83 385.34"/><polygon class="cls-1" points="770.15 606.25 1052.6 769.33 1334.9 606.35 1052.45 443.27 770.15 606.25"/><polygon class="cls-3" points="1334.64 606.75 1052.81 769.46 1052.66 769.37 1052.66 1095.19 1334.66 932.38 1334.66 606.75 1334.64 606.75"/><polygon class="cls-6" points="770.83 606.66 770.66 606.75 770.66 932.38 1052.66 1095.19 1052.66 769.37 770.83 606.66"/><polygon class="cls-1" points="385.51 827.6 667.96 990.68 950.26 827.69 667.81 664.62 385.51 827.6"/><polygon class="cls-3" points="949.64 828.1 667.81 990.81 667.66 990.72 667.66 1316.54 949.66 1153.73 949.66 828.11 949.64 828.1"/><polygon class="cls-4" points="385.83 828.01 385.66 828.11 385.66 1153.73 667.66 1316.54 667.66 990.72 385.83 828.01"/></g><g id="Top_Left-9" data-name="Top Left"><polygon class="cls-1" points="1539.79 606.33 1822.23 769.4 2104.53 606.41 1822.08 443.34 1539.79 606.33"/><polygon class="cls-5" points="2104.64 606.82 1822.81 769.53 1822.66 769.44 1822.66 1095.26 2104.66 932.45 2104.66 606.83 2104.64 606.82"/><polygon class="cls-6" points="1539.83 606.73 1539.66 606.83 1539.66 932.45 1821.66 1095.26 1821.66 769.44 1539.83 606.73"/><polygon class="cls-1" points="1154.97 827.64 1437.42 990.71 1719.72 827.73 1437.27 664.66 1154.97 827.64"/><polygon class="cls-5" points="1719.64 828.13 1437.81 990.85 1437.66 990.76 1437.66 1316.58 1719.66 1153.77 1719.66 828.14 1719.64 828.13"/><polygon class="cls-6" points="1154.83 828.04 1154.66 828.14 1154.66 1153.77 1436.66 1316.58 1436.66 990.76 1154.83 828.04"/><polygon class="cls-1" points="770.33 1048.99 1052.78 1212.06 1335.08 1049.08 1052.63 886.01 770.33 1048.99"/><polygon class="cls-5" points="1334.64 1049.48 1052.81 1212.2 1052.66 1212.11 1052.66 1537.93 1334.66 1375.12 1334.66 1049.49 1334.64 1049.48"/><polygon class="cls-4" points="770.83 1049.39 770.66 1049.49 770.66 1375.12 1052.66 1537.93 1052.66 1212.11 770.83 1049.39"/></g></g></g><polygon class="cls-4" points="629.66 968.74 842.66 1090.74 835.66 1412.74 617.66 1287.74 629.66 968.74"/><polygon class="cls-7" points="537.4 916.46 750.16 1038.24 743.42 1359.36 528.16 1235.24 537.4 916.46"/><polygon class="cls-7" points="733.81 1029.12 946.16 1151.24 939.83 1472.02 724.57 1347.9 733.81 1029.12"/><polygon class="cls-4" points="242.72 1631.29 455.72 1753.29 448.72 2075.29 230.72 1950.29 242.72 1631.29"/><polygon class="cls-7" points="150.46 1579.02 363.22 1700.79 356.48 2021.91 141.22 1897.79 150.46 1579.02"/><polygon class="cls-7" points="346.87 1691.68 559.22 1813.79 552.89 2134.57 337.63 2010.45 346.87 1691.68"/><polygon class="cls-5" points="1885.03 733.67 1672.03 855.67 1679.03 1177.67 1897.03 1052.67 1885.03 733.67"/><polygon class="cls-8" points="1977.29 681.4 1764.53 803.17 1771.27 1124.29 1986.53 1000.17 1977.29 681.4"/><polygon class="cls-8" points="1780.88 794.06 1568.53 916.17 1574.86 1236.95 1790.12 1112.83 1780.88 794.06"/><polygon class="cls-5" points="1500.41 1841.46 1286.91 1963.34 1293.92 2285.01 1512.44 2160.14 1500.41 1841.46"/><polygon class="cls-8" points="1592.9 1789.23 1379.63 1910.89 1386.38 2231.69 1602.16 2107.69 1592.9 1789.23"/><polygon class="cls-8" points="1397.02 1900.78 1184.16 2023.78 1190.5 2344.24 1406.28 2220.24 1397.02 1900.78"/><polygon class="cls-4" points="284.35 1212.8 284.64 1654.94 1.53 1614.14 1.35 1365.23 284.35 1212.8"/><polygon class="cls-7" points="283.74 1212.77 283.1 1341.6 1.88 1499.57 2.31 1253.43 283.74 1212.77"/><polygon class="cls-7" points="283.86 1413.06 283.72 1655.71 2 1813.86 2.43 1567.72 283.86 1413.06"/><polygon class="cls-5" points="1335.37 1254.29 1335 1696.31 1053.17 1655.31 1052.81 1406.45 1335.37 1254.29"/><polygon class="cls-8" points="1334.76 1253.26 1334.21 1382.05 1053.44 1539.77 1053.68 1293.69 1334.76 1253.26"/><polygon class="cls-8" points="1334.03 1454.49 1335.08 1697.08 1054.81 1854.97 1054.04 1608.89 1334.03 1454.49"/><polygon class="cls-5" points="2104.85 1300.35 2104.48 1742.38 1822.66 1701.37 1822.29 1452.52 2104.85 1300.35"/><polygon class="cls-8" points="2104.24 1299.32 2103.7 1428.11 1822.92 1585.83 1823.16 1339.75 2104.24 1299.32"/><polygon class="cls-8" points="2103.52 1500.56 2104.56 1743.14 1824.29 1901.04 1823.53 1654.96 2103.52 1500.56"/><polygon class="cls-5" points="1548.07 1370.48 1335.07 1492.48 1342.07 1814.48 1560.07 1689.48 1548.07 1370.48"/><polygon class="cls-8" points="1640.34 1318.2 1427.57 1439.98 1434.31 1761.1 1649.57 1636.98 1640.34 1318.2"/><polygon class="cls-8" points="1443.92 1430.86 1231.57 1552.98 1237.9 1873.76 1453.16 1749.64 1443.92 1430.86"/><polygon class="cls-5" points="1810.07 1219.71 1597.07 1341.71 1604.07 1662.71 1822.07 1537.71 1810.07 1219.71"/><polygon class="cls-8" points="1902.34 1167.43 1689.57 1289.21 1696.31 1609.33 1911.57 1485.21 1902.34 1167.43"/><polygon class="cls-8" points="1705.92 1280.09 1493.57 1402.21 1499.9 1722.99 1715.16 1597.87 1705.92 1280.09"/></svg>